<svg width="29" height="29" viewBox="0 0 29 29" fill="none" xmlns="http://www.w3.org/2000/svg">
<path d="M28.5276 13.3612L26.6394 11.473C24.7705 9.6041 22.2041 8.87267 19.7698 9.23033C20.1258 6.79598 19.396 4.22951 17.5272 2.36065L15.639 0.472452C15.0091 -0.157484 13.9909 -0.157484 13.361 0.472452L11.4728 2.36065C9.60397 4.22951 8.87255 6.79598 9.2302 9.23033C6.79588 8.87428 4.22945 9.6041 2.36062 11.473L0.472445 13.3612C-0.157482 13.9911 -0.157482 15.0093 0.472445 15.6392L2.36062 17.5274C3.93141 19.0983 5.99357 19.8829 8.05574 19.8829C8.44884 19.8829 8.84032 19.8281 9.2302 19.7701C8.87416 22.2044 9.60397 24.7709 11.4728 26.6398L13.361 28.528C13.6751 28.8421 14.0876 29 14.5 29C14.9124 29 15.3249 28.8421 15.639 28.528L17.5272 26.6398C19.396 24.7709 20.1275 22.2044 19.7698 19.7701C20.1597 19.8265 20.5512 19.8829 20.9443 19.8829C23.0064 19.8829 25.0702 19.0983 26.6394 17.5274L28.5276 15.6392C29.1575 15.0093 29.1575 13.9911 28.5276 13.3612ZM11.4728 15.2494C9.64747 17.0747 6.464 17.0747 4.63867 15.2494L3.88952 14.5002L4.63867 13.751C6.464 11.9257 9.64747 11.9257 11.4728 13.751L12.222 14.5002L11.4728 15.2494ZM15.2491 24.3617L14.5 25.1108L13.7509 24.3617C12.839 23.4498 12.3363 22.2367 12.3363 20.9446C12.3363 19.6525 12.839 18.4393 13.7509 17.5274L14.5 16.7783L15.2491 17.5274C16.161 18.4393 16.6637 19.6525 16.6637 20.9446C16.6637 22.2367 16.161 23.4498 15.2491 24.3617ZM15.2491 11.473L14.5 12.2221L13.7509 11.473C12.839 10.5611 12.3363 9.34794 12.3363 8.05585C12.3363 6.76375 12.839 5.55061 13.7509 4.63873L14.5 3.88957L15.2491 4.63873C16.161 5.55061 16.6637 6.76375 16.6637 8.05585C16.6637 9.34794 16.161 10.5611 15.2491 11.473ZM24.3613 15.2494C22.536 17.0747 19.3525 17.0747 17.5272 15.2494L16.778 14.5002L17.5272 13.751C19.3525 11.9257 22.536 11.9257 24.3613 13.751L25.1105 14.5002L24.3613 15.2494Z" fill="#ECC3B2"/>
</svg>
