<svg width="125" height="19" viewBox="0 0 125 19" fill="none" xmlns="http://www.w3.org/2000/svg">
<g clip-path="url(#clip0_2_547)">
<path d="M125 18.9193C124.208 18.925 123.417 18.9597 122.631 18.9193C122.427 18.9077 122.088 18.6942 122.06 18.5268C121.766 16.8069 120.731 16.4606 119.176 16.6106C117.588 16.7607 115.976 16.6568 114.37 16.6337C113.969 16.628 113.76 16.7549 113.618 17.1416C113.398 17.7361 113.262 18.5383 112.827 18.8327C112.38 19.1328 111.606 18.925 110.978 18.9366C110.74 18.9424 110.503 18.9366 110.141 18.9366C112.618 12.5994 115.054 6.38342 117.554 -0.0114746C118.226 1.69114 118.826 3.21483 119.425 4.73853C121.172 9.19995 122.919 13.6614 124.672 18.117C124.763 18.3479 124.893 18.5557 125.006 18.775C125 18.8269 125 18.8731 125 18.9193ZM117.644 7.35305C117.588 7.34727 117.531 7.3415 117.474 7.33573C116.626 9.51738 115.778 11.6933 114.907 13.9211C116.722 13.9211 118.424 13.9211 120.16 13.9211C120.137 13.7883 120.143 13.696 120.109 13.6152C119.289 11.5317 118.464 9.44235 117.644 7.35305Z" fill="black"/>
<path d="M63.3311 0.0866699C68.5102 0.0866699 72.519 4.22488 72.5642 9.51164C72.6094 14.96 67.9561 19.0982 63.1954 18.9712C58.1124 18.8327 54.0302 14.7465 54.0245 9.51164C54.0245 4.22488 58.1124 0.0866699 63.3311 0.0866699ZM56.518 9.47701C56.5123 13.3209 59.492 16.4317 63.1898 16.4433C67.0289 16.4548 70.099 13.4074 70.1103 9.56936C70.1216 5.67355 67.1137 2.57422 63.3198 2.57422C59.5259 2.56844 56.5236 5.61583 56.518 9.47701Z" fill="black"/>
<path d="M93.7443 13.8864C95.0335 15.5717 96.283 17.1935 97.6174 18.9366C96.4639 18.9366 95.4575 18.9539 94.4511 18.9192C94.2758 18.9135 94.0723 18.6999 93.9422 18.5326C93.0602 17.4244 92.2121 16.2874 91.3074 15.1966C91.1209 14.9715 90.7703 14.8041 90.4763 14.781C89.7808 14.7233 89.0797 14.7637 88.3051 14.7637C88.3051 16.1547 88.3051 17.4994 88.3051 18.8962C87.4005 18.8962 86.5806 18.8962 85.7156 18.8962C85.7156 12.6456 85.7156 6.41803 85.7156 0.0923922C86.6033 0.0923922 87.4796 0.0808491 88.3504 0.0981638C89.4529 0.12125 90.5894 0.0115903 91.658 0.23091C94.6603 0.854239 96.6053 2.78771 97.2555 5.81779C97.9114 8.87672 96.9332 11.4451 94.4624 13.367C94.2476 13.5286 94.0214 13.6844 93.7443 13.8864ZM88.3221 12.0338C89.0741 12.0338 89.7922 12.0626 90.5046 12.028C92.3817 11.9299 93.7048 10.9199 94.4341 9.21147C95.1635 7.48577 94.8978 5.82933 93.6878 4.36912C92.2573 2.63765 90.3406 2.61457 88.3277 2.7704C88.3221 5.85819 88.3221 8.91135 88.3221 12.0338Z" fill="black"/>
<path d="M27.6823 18.9422C27.6823 12.6108 27.6823 6.40062 27.6823 0.098072C30.9277 0.173102 34.2014 -0.398283 37.1133 1.6968C40.3813 4.0516 41.9079 8.34564 40.7262 12.2472C39.5106 16.27 35.9994 18.9365 31.9229 18.9365C30.532 18.9422 29.1354 18.9422 27.6823 18.9422ZM30.2719 16.2411C33.359 16.726 36.0843 15.5082 37.5882 13.0033C38.9509 10.7351 38.8491 7.71654 37.3055 5.58106C35.5923 3.20895 33.0763 2.35475 30.2662 2.80494C30.2719 7.28945 30.2719 11.7682 30.2719 16.2411Z" fill="black"/>
<path d="M0 18.9424C2.47082 12.6341 4.90773 6.4066 7.41813 -0.00561523C9.91722 6.3662 12.3598 12.5879 14.8476 18.9367C13.9316 18.9367 13.1118 18.954 12.2919 18.9194C12.1562 18.9136 11.9414 18.6827 11.9188 18.5269C11.6417 16.7839 10.5731 16.478 9.02954 16.6223C7.46336 16.7666 5.86892 16.6627 4.29143 16.6454C3.88999 16.6396 3.62425 16.7146 3.48856 17.1706C3.30763 17.7593 3.17193 18.5442 2.75353 18.8212C2.29555 19.1214 1.53225 18.9251 0.90465 18.9424C0.627601 18.9482 0.36186 18.9424 0 18.9424ZM10.0982 13.9443C9.20481 11.6645 8.3454 9.47707 7.41813 7.12227C6.49652 9.48861 5.64275 11.6876 4.76637 13.9443C6.59264 13.9443 8.2832 13.9443 10.0982 13.9443Z" fill="black"/>
</g>
<defs>
<clipPath id="clip0_2_547">
<rect width="125" height="19" fill="white"/>
</clipPath>
</defs>
</svg>
